<svg version="1" xmlns="http://www.w3.org/2000/svg" width="933.333" height="933.333" viewBox="0 0 700.000000 700.000000"><path d="M249.3 43.8c-1.3.2-2.3.6-2.4 1-.1 1.4-1.8 10-2.5 12.7-1.2 5.3-12 62.2-12.9 68.5-.2 1.9-.6 4.4-.9 5.5-.3 1.8-.7 4.1-2.1 13.5-1.8 11.3-3.6 23.5-4 27.6-.3 2.7-.8 6-1 7.3-.2 1.3-.7 5.8-1 10-.4 4.2-.8 8.6-1 9.8-1.8 10.9-2.5 59.3-1.2 75.8 2.9 35.6 12.9 61.5 30.7 79.3 9.9 9.9 19.2 15.4 40 23.8 34.9 14.1 35.7 15.5 37.4 69.9.3 8.8.8 24.5 1.1 35 .4 10.4.8 22.4 1 26.5 3.1 73.5 2.8 78.4-6.6 98.3-4.3 9.4-5.2 9.8-24.4 13.2-4.4.8-8.9 1.7-10 1.9-11.7 2.6-17.4 3.8-19.5 4.2-6.5 1.1-20.6 4.8-21.4 5.5-.6.5-1.6.9-2.4.9-.8 0-3.1 1.4-5.2 3-6.7 5.3-7.4 17.1-1.2 18.7 4 1 217.3 1 220.4 0 2-.7 3.1-1.9 3.9-4.7 1-3.4.9-4.4-1.2-8.7-2-3.9-3.4-5.3-7.9-7.5-4.9-2.5-15.9-5.7-24.5-7.2-14-2.5-46.8-9.7-48.5-10.6-2.5-1.3-9-14.6-11.4-23.1-2.7-9.8-3.3-24.5-2.1-52.9.2-4.7.6-15.5.9-24 .3-8.5.8-20.9 1.1-27.5.3-6.6.7-21 1-32 1.1-42 2.2-51.1 6.7-59.5 4-7.3 8.8-10.3 31.3-19.5 22.3-9.1 29.5-13.5 40-24 15.4-15.6 24.8-37.1 29-66.5 2.6-17.6 2.5-81.8 0-91-.2-.8-.7-4.9-1-9-.3-4.1-.8-8.6-1-10-.2-1.4-.6-4.8-1-7.5-.3-2.8-.8-6.1-1-7.5-.3-1.4-.7-4.2-1-6.3-1.1-8.4-1.7-11.8-4-25.7-3.3-20.2-3.3-19.9-4.4-26-1.8-9.8-2.1-11.3-5.1-26.6-3.4-16.8-3.3-16.4-5-25.4-.7-3.6-1.6-7.1-2-7.9-.6-1.1-16.7-1.4-101.1-1.5-55.2 0-101.4 0-102.6.2z"/></svg>